<?xml version="1.0" standalone="no"?>
<!DOCTYPE svg PUBLIC "-//W3C//DTD SVG 20010904//EN"
 "http://www.w3.org/TR/2001/REC-SVG-20010904/DTD/svg10.dtd">
<svg version="1.0" xmlns="http://www.w3.org/2000/svg"
 width="120.000000pt" height="120.000000pt" viewBox="0 0 120.000000 120.000000"
 preserveAspectRatio="xMidYMid meet">
<metadata>
Created by potrace 1.11, written by Peter Selinger 2001-2013
</metadata>
<g transform="translate(0.000000,120.000000) scale(0.100000,-0.100000)"
fill="#000000" stroke="none">
<path d="M558 1145 c-2 -2 -24 -6 -50 -9 -55 -7 -63 -10 -138 -43 -73 -33
-152 -96 -209 -169 -17 -22 -58 -101 -74 -144 -41 -111 -42 -198 -4 -355 6
-25 62 -131 81 -153 65 -76 142 -142 165 -142 6 0 11 -4 11 -9 0 -5 37 -21 83
-35 204 -65 409 -20 556 123 47 46 115 139 116 161 1 3 6 15 13 28 7 12 10 22
7 22 -3 0 -1 8 4 19 26 49 33 178 15 269 -41 198 -191 361 -384 416 -48 13
-184 28 -192 21z"/>
</g>
</svg>
